<svg width="33" height="32" viewBox="0 0 33 32" fill="none" xmlns="http://www.w3.org/2000/svg">
<g clip-path="url(#clip0_654_7241)">
<path d="M32.0117 16C32.0117 7.1625 24.8492 0 16.0117 0C7.17422 0 0.0117188 7.1625 0.0117188 16C0.0117188 24.8375 7.17422 32 16.0117 32C16.1055 32 16.1992 32 16.293 31.9937V19.5438H12.8555V15.5375H16.293V12.5875C16.293 9.16875 18.3805 7.30625 21.4305 7.30625C22.893 7.30625 24.1492 7.4125 24.5117 7.4625V11.0375H22.4117C20.7555 11.0375 20.4305 11.825 20.4305 12.9812V15.5312H24.3992L23.8805 19.5375H20.4305V31.3813C27.118 29.4625 32.0117 23.3062 32.0117 16Z" fill="#A7A7A7"/>
</g>
<defs>
<clipPath id="clip0_654_7241">
<rect width="32" height="32" fill="white" transform="translate(0.0117188)"/>
</clipPath>
</defs>
</svg>
