<svg width="33" height="32" viewBox="0 0 33 32" fill="none" xmlns="http://www.w3.org/2000/svg">
<g clip-path="url(#clip0_654_7250)">
<path d="M19.0742 16C19.0742 17.6914 17.7031 19.0625 16.0117 19.0625C14.3203 19.0625 12.9492 17.6914 12.9492 16C12.9492 14.3086 14.3203 12.9375 16.0117 12.9375C17.7031 12.9375 19.0742 14.3086 19.0742 16Z" fill="#A7A7A7"/>
<path d="M23.1738 10.5815C23.0266 10.1826 22.7917 9.82153 22.4866 9.52515C22.1902 9.21997 21.8293 8.98511 21.4302 8.83789C21.1064 8.71216 20.6201 8.5625 19.7244 8.52173C18.7554 8.47754 18.4648 8.46802 16.0117 8.46802C13.5583 8.46802 13.2678 8.47729 12.2991 8.52148C11.4033 8.5625 10.9167 8.71216 10.5933 8.83789C10.1941 8.98511 9.83301 9.21997 9.53687 9.52515C9.23169 9.82153 8.99683 10.1824 8.84937 10.5815C8.72363 10.9053 8.57397 11.3918 8.5332 12.2876C8.48901 13.2563 8.47949 13.5469 8.47949 16.0002C8.47949 18.4534 8.48901 18.7439 8.5332 19.7129C8.57397 20.6086 8.72363 21.095 8.84937 21.4187C8.99683 21.8179 9.23145 22.1787 9.53662 22.4751C9.83301 22.7803 10.1938 23.0151 10.593 23.1624C10.9167 23.2883 11.4033 23.438 12.2991 23.4788C13.2678 23.5229 13.5581 23.5322 16.0115 23.5322C18.4651 23.5322 18.7556 23.5229 19.7241 23.4788C20.6199 23.438 21.1064 23.2883 21.4302 23.1624C22.2314 22.8533 22.8647 22.22 23.1738 21.4187C23.2996 21.095 23.4492 20.6086 23.4902 19.7129C23.5344 18.7439 23.5437 18.4534 23.5437 16.0002C23.5437 13.5469 23.5344 13.2563 23.4902 12.2876C23.4495 11.3918 23.2998 10.9053 23.1738 10.5815ZM16.0117 20.7178C13.406 20.7178 11.2937 18.6057 11.2937 16C11.2937 13.3943 13.406 11.2822 16.0117 11.2822C18.6172 11.2822 20.7295 13.3943 20.7295 16C20.7295 18.6057 18.6172 20.7178 16.0117 20.7178ZM20.916 12.1982C20.3071 12.1982 19.8135 11.7046 19.8135 11.0957C19.8135 10.4868 20.3071 9.99316 20.916 9.99316C21.5249 9.99316 22.0186 10.4868 22.0186 11.0957C22.0183 11.7046 21.5249 12.1982 20.916 12.1982Z" fill="#A7A7A7"/>
<path d="M16.0117 0C7.17651 0 0.0117188 7.16479 0.0117188 16C0.0117188 24.8352 7.17651 32 16.0117 32C24.8469 32 32.0117 24.8352 32.0117 16C32.0117 7.16479 24.8469 0 16.0117 0ZM25.1438 19.7878C25.0994 20.7659 24.9438 21.4336 24.7168 22.0181C24.2395 23.2522 23.2639 24.2278 22.0298 24.7051C21.4456 24.9321 20.7776 25.0874 19.7998 25.1321C18.8201 25.1768 18.5071 25.1875 16.012 25.1875C13.5166 25.1875 13.2039 25.1768 12.2239 25.1321C11.2461 25.0874 10.5781 24.9321 9.9939 24.7051C9.38062 24.4744 8.82544 24.1128 8.36646 23.6453C7.89917 23.1865 7.5376 22.6311 7.30688 22.0181C7.07983 21.4338 6.92432 20.7659 6.87988 19.7881C6.83472 18.8081 6.82422 18.4951 6.82422 16C6.82422 13.5049 6.83472 13.1919 6.87964 12.2122C6.92407 11.2341 7.07935 10.5664 7.3064 9.98193C7.53711 9.3689 7.89893 8.81348 8.36646 8.35474C8.8252 7.88721 9.38062 7.52563 9.99365 7.29492C10.5781 7.06787 11.2458 6.9126 12.2239 6.86792C13.2036 6.82324 13.5166 6.8125 16.0117 6.8125C18.5068 6.8125 18.8198 6.82324 19.7996 6.86816C20.7776 6.9126 21.4453 7.06787 22.0298 7.29468C22.6428 7.52539 23.1982 7.88721 23.6572 8.35474C24.1245 8.81372 24.4863 9.3689 24.7168 9.98193C24.9441 10.5664 25.0994 11.2341 25.144 12.2122C25.1887 13.1919 25.1992 13.5049 25.1992 16C25.1992 18.4951 25.1887 18.8081 25.1438 19.7878Z" fill="#A7A7A7"/>
</g>
<defs>
<clipPath id="clip0_654_7250">
<rect width="32" height="32" fill="white" transform="translate(0.0117188)"/>
</clipPath>
</defs>
</svg>
