<svg width="33" height="32" viewBox="0 0 33 32" fill="none" xmlns="http://www.w3.org/2000/svg">
<g clip-path="url(#clip0_654_7243)">
<path d="M16.0117 0C7.17651 0 0.0117188 7.16479 0.0117188 16C0.0117188 24.8352 7.17651 32 16.0117 32C24.8469 32 32.0117 24.8352 32.0117 16C32.0117 7.16479 24.8469 0 16.0117 0ZM11.3623 24.1875H7.46558V12.4641H11.3623V24.1875ZM9.41406 10.8633H9.38867C8.08105 10.8633 7.23535 9.96313 7.23535 8.83813C7.23535 7.68774 8.10693 6.8125 9.43994 6.8125C10.7729 6.8125 11.5933 7.68774 11.6187 8.83813C11.6187 9.96313 10.7729 10.8633 9.41406 10.8633ZM25.4131 24.1875H21.5168V17.9158C21.5168 16.3396 20.9526 15.2646 19.5427 15.2646C18.4663 15.2646 17.8252 15.9897 17.5435 16.6897C17.4404 16.9402 17.4153 17.2903 17.4153 17.6406V24.1875H13.5188C13.5188 24.1875 13.5698 13.564 13.5188 12.4641H17.4153V14.124C17.9331 13.3252 18.8596 12.189 20.927 12.189C23.4907 12.189 25.4131 13.8645 25.4131 17.4653V24.1875Z" fill="#A7A7A7"/>
</g>
<defs>
<clipPath id="clip0_654_7243">
<rect width="32" height="32" fill="white" transform="translate(0.0117188)"/>
</clipPath>
</defs>
</svg>
