<svg width="33" height="32" viewBox="0 0 33 32" fill="none" xmlns="http://www.w3.org/2000/svg">
<g clip-path="url(#clip0_654_7245)">
<path d="M16.0126 31.9997C24.849 31.9997 32.0124 24.8363 32.0124 15.9999C32.0124 7.16338 24.849 0 16.0126 0C7.17608 0 0.0126953 7.16338 0.0126953 15.9999C0.0126953 24.8363 7.17608 31.9997 16.0126 31.9997Z" fill="#A7A7A7"/>
<path d="M25.8123 11.4986C25.1267 11.8027 24.3891 12.0083 23.6156 12.1001C24.4054 11.627 25.0114 10.8783 25.2975 9.98471C24.5585 10.4231 23.7397 10.7411 22.8689 10.9125C22.1713 10.1695 21.1773 9.7052 20.0767 9.7052C17.965 9.7052 16.2523 11.4179 16.2523 13.5296C16.2523 13.8294 16.2862 14.1211 16.3518 14.4012C13.1734 14.2418 10.3552 12.7193 8.46882 10.4048C8.13968 10.9695 7.95087 11.627 7.95087 12.3277C7.95087 13.6543 8.62654 14.8253 9.65217 15.511C9.02555 15.4913 8.43545 15.3193 7.92007 15.0321C7.91978 15.0484 7.91978 15.0646 7.91978 15.0806C7.91978 16.9336 9.23861 18.4792 10.9878 18.8303C10.6672 18.9181 10.3287 18.9646 9.98045 18.9646C9.73345 18.9646 9.49416 18.941 9.26085 18.8965C9.74743 20.4155 11.1595 21.5213 12.8334 21.5524C11.5243 22.5783 9.87549 23.1895 8.08321 23.1895C7.77518 23.1895 7.47 23.1715 7.17139 23.1359C8.86298 24.2214 10.8737 24.8543 13.0334 24.8543C20.0678 24.8543 23.9148 19.0268 23.9148 13.9726C23.9148 13.8068 23.9111 13.6417 23.9037 13.478C24.6515 12.9389 25.2998 12.2656 25.8123 11.4986Z" fill="#040505"/>
</g>
<defs>
<clipPath id="clip0_654_7245">
<rect width="32" height="32" fill="white" transform="translate(0.0117188)"/>
</clipPath>
</defs>
</svg>
